<svg width="1024" height="1024" viewBox="0 0 1024 1024" fill="none" xmlns="http://www.w3.org/2000/svg">
<path d="M795.904 750.72L920.896 875.648C926.725 881.683 929.95 889.767 929.877 898.157C929.804 906.547 926.439 914.573 920.506 920.506C914.573 926.439 906.547 929.805 898.157 929.878C889.766 929.951 881.683 926.725 875.648 920.896L750.656 795.904C668.976 865.884 563.367 901.509 455.988 895.302C348.609 889.095 247.808 841.539 174.736 762.613C101.664 683.687 62.0017 579.527 64.0718 471.989C66.1418 364.45 109.783 261.894 185.838 185.839C261.893 109.783 364.45 66.142 471.988 64.072C579.527 62.002 683.687 101.664 762.613 174.736C841.539 247.808 889.094 348.609 895.301 455.988C901.508 563.367 865.884 668.977 795.904 750.656V750.72ZM480 832C573.356 832 662.889 794.914 728.901 728.902C794.914 662.889 832 573.356 832 480C832 386.644 794.914 297.111 728.901 231.098C662.889 165.086 573.356 128 480 128C386.644 128 297.111 165.086 231.098 231.098C165.085 297.111 128 386.644 128 480C128 573.356 165.085 662.889 231.098 728.902C297.111 794.914 386.644 832 480 832V832Z" fill="#323232"/>
</svg>
